<?xml version="1.0" encoding="utf-8"?>
<!-- Generator: Adobe Illustrator 22.0.0, SVG Export Plug-In . SVG Version: 6.00 Build 0)  -->
<svg version="1.1" id="Ebene_1" xmlns="http://www.w3.org/2000/svg" xmlns:xlink="http://www.w3.org/1999/xlink" x="0px" y="0px"
	 viewBox="0 0 24.7 38" style="enable-background:new 0 0 24.7 38;" xml:space="preserve">
<style type="text/css">
	.st0{fill:#272525;stroke:#020204;stroke-width:0.75;stroke-miterlimit:10;}
</style>
<g id="XMLID_1_">
	<path id="XMLID_5_" class="st0" d="M24.4,35.4c0-0.2,0.1-3.9-2.2-6c-0.2-0.2-0.6-0.2-0.8,0c-0.1,0.1-2.6,1.9-4.9,0
		c-0.2-0.2-0.6-0.2-0.8,0c0,0-0.3,0.3-0.7,0.8c-0.4-0.6-0.8-1.1-1.3-1.5c-0.2-0.2-0.6-0.2-0.8,0c-0.2,0.1-3.8,2.8-7.3,0
		c-0.2-0.2-0.6-0.2-0.8,0c-0.1,0.1-3.2,2.9-3.3,8.3c0,0.2,0.1,0.3,0.2,0.5c0.1,0.1,0.3,0.2,0.5,0.2l14.1,0c0.3,0,0.6-0.3,0.6-0.6
		c0-0.1,0-0.4,0-1l7,0C24.1,36,24.3,35.7,24.4,35.4z M2.6,36.3c0.2-3.4,1.8-5.6,2.5-6.4c3.3,2.3,6.7,0.7,7.9,0
		c1.9,2,2.3,5.1,2.3,6.4L2.6,36.3z M16.5,34.7c-0.2-1-0.4-2.1-0.9-3.3c0.2-0.3,0.4-0.6,0.5-0.7c2.1,1.3,4.3,0.7,5.5,0
		c1.1,1.3,1.4,3.1,1.4,4L16.5,34.7z"/>
	<path id="XMLID_4_" class="st0" d="M17.7,12.7h-5v1.6c0,0.8,0.6,1.4,1.4,1.4h4.4l1.3,1.5c0.1,0.1,0.2,0.2,0.4,0.2
		c0.1,0,0.1,0,0.2,0c0.2-0.1,0.3-0.3,0.3-0.5l-0.1-1.1h2.3c0.8,0,1.4-0.6,1.4-1.4V8.7c0-0.8-0.6-1.4-1.4-1.4h-3.1v3.4
		C19.8,11.8,18.9,12.7,17.7,12.7z M19.9,10.7V8.2h3c0.3,0,0.5,0.2,0.5,0.5v5.6c0,0.3-0.2,0.5-0.5,0.5h-2.8c-0.1,0-0.3,0.1-0.4,0.2
		c-0.1,0.1-0.1,0.2-0.1,0.4l0,0.2l-0.5-0.5c-0.1-0.1-0.2-0.2-0.4-0.2h-4.7c-0.3,0-0.5-0.2-0.5-0.5v-1.5h4.1
		C19,12.8,19.9,11.9,19.9,10.7z"/>
	<path id="XMLID_3_" class="st0" d="M0.4,10.7c0,1.1,0.9,2.1,2.1,2.1H8l-0.2,2c0,0.2,0.1,0.5,0.3,0.6c0.1,0,0.1,0,0.2,0
		c0.2,0,0.3-0.1,0.4-0.2l2.1-2.4h1.8h5c1.1,0,2.1-0.9,2.1-2.1V7.2V2.4c0-1.1-0.9-2.1-2.1-2.1H2.4c-1.1,0-2.1,0.9-2.1,2.1V10.7z
		 M1.5,2.4c0-0.5,0.4-1,1-1h15.3c0.5,0,1,0.4,1,1v8.2c0,0.5-0.4,1-1,1h-7.1c-0.2,0-0.3,0.1-0.4,0.2l-1.1,1.3l0.1-0.9
		c0-0.2,0-0.3-0.1-0.4c-0.1-0.1-0.3-0.2-0.4-0.2H2.4c-0.5,0-1-0.4-1-1V2.4z"/>
	<path id="XMLID_2_" class="st0" d="M18.8,29.4L18.8,29.4c1.2,0,2.3-0.5,3.1-1.3c0.8-0.8,1.3-1.9,1.3-3.1c0-2.4-2-4.4-4.4-4.4
		c-1.2,0-2.3,0.5-3.1,1.3c-0.3,0.3-0.5,0.5-0.6,0.8c0-0.2,0-0.4,0-0.6c0-3.3-2.7-6-6-6c-1.6,0-3.1,0.6-4.3,1.8
		C3.6,18.9,3,20.5,3,22.1c0,3.3,2.7,6,6,6h0c1.6,0,3.1-0.6,4.3-1.8c0.5-0.4,0.8-1,1.1-1.5c0,0,0,0.1,0,0.1
		C14.4,27.4,16.4,29.4,18.8,29.4z M16.6,22.7c0.6-0.6,1.4-0.9,2.2-0.9c1.7,0,3.1,1.4,3.1,3.1c0,0.8-0.3,1.6-0.9,2.2
		c-0.6,0.6-1.4,0.9-2.2,0.9h0c-1.7,0-3.1-1.4-3.1-3.1C15.7,24.1,16,23.3,16.6,22.7z M12.4,25.4c-0.9,0.9-2.1,1.4-3.4,1.4h0
		c-2.6,0-4.7-2.1-4.8-4.7c0-1.3,0.5-2.5,1.4-3.4c0.9-0.9,2.1-1.4,3.4-1.4c2.6,0,4.7,2.1,4.8,4.7C13.8,23.3,13.3,24.5,12.4,25.4z"/>
</g>
</svg>
