<?xml version="1.0" encoding="utf-8"?>
<!-- Generator: Adobe Illustrator 22.0.0, SVG Export Plug-In . SVG Version: 6.00 Build 0)  -->
<svg version="1.1" id="Ebene_1" xmlns="http://www.w3.org/2000/svg" xmlns:xlink="http://www.w3.org/1999/xlink" x="0px" y="0px"
	 viewBox="0 0 112.5 67.5" style="enable-background:new 0 0 112.5 67.5;" xml:space="preserve">
<style type="text/css">
	.st0{fill:#020204;stroke:#020204;stroke-width:0.75;stroke-miterlimit:10;}
</style>
<path class="st0" d="M18.9,67.2c-2.7,0-5-2.2-5-5s2.2-5,5-5s5,2.2,5,5S21.7,67.2,18.9,67.2z M18.9,60.2c-1.1,0-2,0.9-2,2
	c0,1.1,0.9,2,2,2c1.1,0,2-0.9,2-2C20.9,61.1,20,60.2,18.9,60.2z M50.3,67.2c-2.7,0-5-2.2-5-5s2.2-5,5-5s5,2.2,5,5S53,67.2,50.3,67.2
	z M50.3,60.2c-1.1,0-2,0.9-2,2c0,1.1,0.9,2,2,2s2-0.9,2-2C52.3,61.1,51.4,60.2,50.3,60.2z M65.9,0.4H55.5C54.7,0.4,54,1,54,1.9v6
	H1.9C1.4,7.8,1,8,0.7,8.4S0.3,9.2,0.4,9.6l5.7,28.3c0.1,0.7,0.8,1.2,1.5,1.2H54v4.5H12.3c-0.8,0-1.5,0.7-1.5,1.5
	c0,0.8,0.7,1.5,1.5,1.5h43.2c0.8,0,1.5-0.7,1.5-1.5V3.4h8.9c0.8,0,1.5-0.7,1.5-1.5S66.8,0.4,65.9,0.4z M8.8,36.1L3.7,10.8H54v25.3
	H8.8z M88.1,35.4H63c-0.4,0-0.7,0.3-0.7,0.7c0,0.4,0.3,0.7,0.7,0.7h25.1c0.4,0,0.7-0.3,0.7-0.7C88.8,35.7,88.5,35.4,88.1,35.4z
	 M101.4,45.9H76.3c-0.4,0-0.7,0.3-0.7,0.7c0,0.4,0.3,0.7,0.7,0.7h25.1c0.4,0,0.7-0.3,0.7-0.7C102.1,46.3,101.8,45.9,101.4,45.9z
	 M111.4,56.5H86.3c-0.4,0-0.7,0.3-0.7,0.7c0,0.4,0.3,0.7,0.7,0.7h25.1c0.4,0,0.7-0.3,0.7-0.7C112.1,56.8,111.8,56.5,111.4,56.5z"/>
</svg>
