<?xml version="1.0" encoding="utf-8"?>
<!-- Generator: Adobe Illustrator 22.0.0, SVG Export Plug-In . SVG Version: 6.00 Build 0)  -->
<svg version="1.1" id="Ebene_1" xmlns="http://www.w3.org/2000/svg" xmlns:xlink="http://www.w3.org/1999/xlink" x="0px" y="0px"
	 viewBox="0 0 32 32" style="enable-background:new 0 0 32 32;" xml:space="preserve">
<path d="M32,16c0,8.8-7.2,16-16,16S0,24.8,0,16S7.2,0,16,0S32,7.2,32,16z M13.9,20H19c-0.5-4.1,6-4.6,6-9.3C25,6.9,21.4,5,16.9,5
	c-3.1,0-5.8,1.3-7.7,3.2l3.2,2.6c1.2-1,2.4-1.6,4.1-1.6c1.7,0,2.9,0.8,2.9,2.2C19.4,14,13.1,15.3,13.9,20z M16.4,27.9
	c2,0,3.6-1.2,3.6-3c0-1.7-1.5-2.9-3.6-2.9s-3.6,1.2-3.6,2.9C12.9,26.7,14.4,27.9,16.4,27.9z"/>
</svg>
