<svg xmlns="http://www.w3.org/2000/svg" viewBox="0 0 32 22">
	<rect class="color1" x="0.83" y="18.95" width="14.43" height="3.06" rx="0.73"/>
	<rect class="color1" x="1.65" y="14.36" width="14.43" height="3.06" rx="0.73"/>
	<rect class="color1" y="9.78" width="14.43" height="3.06" rx="0.73"/>
	<rect class="color1" x="0.83" width="14.43" height="3.06" rx="0.73"/>
	<path class="color2" d="M22.54,4.58H16.76a2,2,0,0,1,.54,1.35V7.52a2,2,0,0,1-2,2,1.93,1.93,0,0,1,.3,1V12.1a1.91,1.91,0,0,1-.3,1,2,2,0,0,1,2,2v1.59a2,2,0,0,1-1.22,1.81,1.93,1.93,0,0,1,.4,1.18v1.59a1.83,1.83,0,0,1-.15.73H32V4.58Zm-.82,12.31h8.56V18H21.72Zm0,1.55H29V19.5H21.72Zm9.47,2.61H21.72V20h9.47Z"/>
	<path class="color1" d="M15.81,5.36a.78.78,0,0,0-.47-.16h-13a.73.73,0,0,0-.73.73V7.52a.73.73,0,0,0,.73.73h13a.74.74,0,0,0,.74-.73V5.93A.74.74,0,0,0,15.81,5.36Z"/>
</svg>