<svg version="1.1" id="Ebene_1" xmlns="http://www.w3.org/2000/svg" xmlns:xlink="http://www.w3.org/1999/xlink" x="0px" y="0px" viewBox="0 0 32 32" style="enable-background:new 0 0 32 32;" xml:space="preserve"> <path id="XMLID_10444_" d="M6.8,1.4c-1.3,0-2.3,1-2.3,2.3v25.2c0,1.3,1,2.3,2.3,2.3h18.9c1.3,0,2.3-1,2.3-2.3V3.7 c0-1.3-1-2.3-2.3-2.3H6.8z M27.2,3.7v25.2c0,0.8-0.7,1.5-1.5,1.5H6.8c-0.8,0-1.5-0.7-1.5-1.5V3.7c0-0.8,0.7-1.5,1.5-1.5h18.9 C26.5,2.2,27.2,2.9,27.2,3.7z M25.2,4.8H7.3C7,4.8,6.8,5.2,6.8,5.6v7.6C6.8,13.7,7,14,7.3,14h17.9c0.3,0,0.6-0.3,0.6-0.8V5.6 C25.8,5.2,25.5,4.8,25.2,4.8z M24.7,12.5H7.9V6.4h16.8V12.5z M23.7,21.6h-3.4c-0.3,0-0.6,0.2-0.6,0.6v6.1c0,0.3,0.2,0.6,0.6,0.6h3.4 c0.3,0,0.6-0.2,0.6-0.6v-6.1C24.2,21.9,24,21.6,23.7,21.6z M23.1,27.8h-2.3v-5h2.3V27.8z M21,20.1h2c0.6,0,1.1-0.6,1.1-1.3 c0-0.7-0.5-1.3-1.1-1.3h-2c-0.6,0-1.1,0.6-1.1,1.3C19.9,19.5,20.4,20.1,21,20.1z M21,18.1h2c0.3,0,0.5,0.3,0.5,0.7 c0,0.4-0.3,0.7-0.5,0.7h-2c-0.3,0-0.5-0.3-0.5-0.7C20.4,18.4,20.7,18.1,21,18.1z M17.4,17.4h-2c-0.6,0-1.1,0.6-1.1,1.3 c0,0.7,0.5,1.3,1.1,1.3h2c0.6,0,1.1-0.6,1.1-1.3C18.5,18,18,17.4,17.4,17.4z M17.4,19.5h-2c-0.3,0-0.5-0.3-0.5-0.7 c0-0.4,0.3-0.7,0.5-0.7h2c0.3,0,0.5,0.3,0.5,0.7C17.9,19.1,17.7,19.5,17.4,19.5z M11.8,17.4h-2c-0.6,0-1.1,0.6-1.1,1.3 c0,0.7,0.5,1.3,1.1,1.3h2c0.6,0,1.1-0.6,1.1-1.3C12.9,18,12.4,17.4,11.8,17.4z M11.8,19.5h-2c-0.3,0-0.5-0.3-0.5-0.7 c0-0.4,0.3-0.7,0.5-0.7h2c0.3,0,0.5,0.3,0.5,0.7C12.4,19.1,12.1,19.5,11.8,19.5z M11.8,21.5h-2c-0.6,0-1.1,0.6-1.1,1.3 c0,0.7,0.5,1.3,1.1,1.3h2c0.6,0,1.1-0.6,1.1-1.3C12.9,22.1,12.4,21.5,11.8,21.5z M11.8,23.5h-2c-0.3,0-0.5-0.3-0.5-0.7 c0-0.4,0.3-0.7,0.5-0.7h2c0.3,0,0.5,0.3,0.5,0.7C12.4,23.2,12.1,23.5,11.8,23.5z M11.8,25.5h-2c-0.6,0-1.1,0.6-1.1,1.3 c0,0.7,0.5,1.3,1.1,1.3h2c0.6,0,1.1-0.6,1.1-1.3C12.9,26.1,12.4,25.5,11.8,25.5z M11.8,27.6h-2c-0.3,0-0.5-0.3-0.5-0.7 c0-0.4,0.3-0.7,0.5-0.7h2c0.3,0,0.5,0.3,0.5,0.7C12.4,27.2,12.1,27.6,11.8,27.6z M17.3,21.5h-2c-0.6,0-1.1,0.6-1.1,1.3 c0,0.7,0.5,1.3,1.1,1.3h2c0.6,0,1.1-0.6,1.1-1.3C18.4,22.1,17.9,21.5,17.3,21.5z M17.3,23.5h-2c-0.3,0-0.5-0.3-0.5-0.7 c0-0.4,0.3-0.7,0.5-0.7h2c0.3,0,0.5,0.3,0.5,0.7C17.8,23.2,17.5,23.5,17.3,23.5z M17.3,25.5h-2c-0.6,0-1.1,0.6-1.1,1.3 c0,0.7,0.5,1.3,1.1,1.3h2c0.6,0,1.1-0.6,1.1-1.3C18.4,26.1,17.9,25.5,17.3,25.5z M17.3,27.6h-2c-0.3,0-0.5-0.3-0.5-0.7 c0-0.4,0.3-0.7,0.5-0.7h2c0.3,0,0.5,0.3,0.5,0.7C17.8,27.2,17.5,27.6,17.3,27.6z"/></svg>