<?xml version="1.0" encoding="UTF-8"?>
<svg xmlns="http://www.w3.org/2000/svg" xmlns:xlink="http://www.w3.org/1999/xlink" viewBox="0 0 150.823 62.702" version="1.1" width="150.823" height="62.702">
<g xmlns="http://www.w3.org/2000/svg" id="opacc-logo-enterpriseshop" transform="translate(-0.4)">
    <path id="Pfad_415" data-name="Pfad 415" d="M39.491,40.237.4,62.7V22.465L39.491,0Z" fill="#FF8800"/>
    <g id="Gruppe_3" data-name="Gruppe 3" transform="translate(50.613 22.021)">
      <path id="Pfad_416" data-name="Pfad 416" d="M141.029,59.6c3.141,0,4.729,2.476,4.729,5.21s-1.589,5.21-4.729,5.21-4.729-2.476-4.729-5.21C136.3,62.112,137.852,59.6,141.029,59.6Zm0,9.644c2.623,0,3.769-2.217,3.769-4.4s-1.108-4.4-3.769-4.4-3.769,2.217-3.769,4.4S138.369,69.244,141.029,69.244Z" transform="translate(-136.3 -59.6)" fill="#FF8800"/>
      <path id="Pfad_417" data-name="Pfad 417" d="M165.4,67.322h.813v1.367h.037a2.678,2.678,0,0,1,2.586-1.589c2.217,0,3.251,1.774,3.251,3.843,0,2.032-1.035,3.843-3.251,3.843a2.591,2.591,0,0,1-2.513-1.589h-.037v4.064H165.4Zm3.436.554c-1.958,0-2.549,1.441-2.549,3.1,0,1.515.665,3.1,2.549,3.1,1.7,0,2.365-1.589,2.365-3.1S170.536,67.876,168.836,67.876Z" transform="translate(-154.648 -64.329)" fill="#FF8800"/>
      <path id="Pfad_418" data-name="Pfad 418" d="M186.433,69.539c.074-1.7,1.293-2.439,2.919-2.439,1.293,0,2.66.406,2.66,2.328V73.27a.468.468,0,0,0,.517.517.7.7,0,0,0,.3-.074v.739a2.571,2.571,0,0,1-.591.074c-.887,0-1.035-.517-1.035-1.256h-.037a2.8,2.8,0,0,1-2.623,1.478c-1.33,0-2.439-.665-2.439-2.106,0-2.032,2-2.106,3.88-2.328.739-.074,1.145-.185,1.145-1,0-1.182-.85-1.478-1.884-1.478-1.108,0-1.921.517-1.921,1.7Zm4.729,1.072h0a1.152,1.152,0,0,1-.776.333c-1.515.259-3.362.259-3.362,1.663a1.512,1.512,0,0,0,1.626,1.441,2.313,2.313,0,0,0,2.512-2.291Z" transform="translate(-167.7 -64.329)" fill="#FF8800"/>
      <path id="Pfad_419" data-name="Pfad 419" d="M211.468,69.676a1.949,1.949,0,0,0-2.032-1.737c-1.7,0-2.549,1.552-2.549,3.1s.85,3.1,2.549,3.1a2.144,2.144,0,0,0,2.106-2.069h.887a2.937,2.937,0,0,1-2.993,2.808c-2.217,0-3.436-1.774-3.436-3.843s1.219-3.843,3.436-3.843a2.672,2.672,0,0,1,2.919,2.476Z" transform="translate(-180.247 -64.392)" fill="#FF8800"/>
      <path id="Pfad_420" data-name="Pfad 420" d="M231.168,69.676a1.949,1.949,0,0,0-2.032-1.737c-1.7,0-2.549,1.552-2.549,3.1s.85,3.1,2.549,3.1a2.144,2.144,0,0,0,2.106-2.069h.887a2.937,2.937,0,0,1-2.993,2.808c-2.217,0-3.436-1.774-3.436-3.843s1.219-3.843,3.436-3.843a2.672,2.672,0,0,1,2.919,2.476Z" transform="translate(-192.668 -64.392)" fill="#FF8800"/>
    </g>
    <g id="Gruppe_4" data-name="Gruppe 4" transform="translate(51.204 38.907)">
      <path id="Pfad_421" data-name="Pfad 421" d="M137.9,106h7.316v1.552h-5.542v2.66h5.1v1.441h-5.1v2.956h5.653v1.552h-7.39V106Z" transform="translate(-137.9 -105.741)" fill="#FF8800"/>
      <path id="Pfad_422" data-name="Pfad 422" d="M161.5,113.285h1.552v1.072l.037.037a2.621,2.621,0,0,1,2.291-1.293,2.316,2.316,0,0,1,2.586,2.512v5.062H166.34v-4.656c-.037-1.145-.48-1.663-1.441-1.663a1.789,1.789,0,0,0-1.774,1.921V120.6H161.5Z" transform="translate(-152.78 -110.218)" fill="#FF8800"/>
      <path id="Pfad_423" data-name="Pfad 423" d="M181.6,109.817h1.219V107.6h1.626v2.217h1.478v1.219h-1.478v3.917c0,.665.074,1,.776,1a2.046,2.046,0,0,0,.665-.074v1.256c-.369.037-.7.074-1.035.074-1.7,0-2-.665-2.032-1.884V111H181.6Z" transform="translate(-165.454 -106.75)" fill="#FF8800"/>
      <path id="Pfad_424" data-name="Pfad 424" d="M197.026,117.386a1.96,1.96,0,0,0,1.958,2.18,1.67,1.67,0,0,0,1.774-1.219h1.552a3.267,3.267,0,0,1-3.325,2.512c-2.291,0-3.584-1.589-3.584-3.88a3.555,3.555,0,1,1,7.02.406h-5.394Zm3.769-1.072a1.886,1.886,0,1,0-3.769,0Z" transform="translate(-174.155 -110.218)" fill="#FF8800"/>
      <path id="Pfad_425" data-name="Pfad 425" d="M217.8,113.222h1.515v1.4h.037A2.377,2.377,0,0,1,221.495,113c.369,0,.48.037.628.037v1.552a4.527,4.527,0,0,0-.7-.074c-1.108,0-2,.887-2,2.512v3.51H217.8v-7.316Z" transform="translate(-188.278 -110.155)" fill="#FF8800"/>
      <path id="Pfad_426" data-name="Pfad 426" d="M231.4,113.285h1.552v1h.037a2.417,2.417,0,0,1,2.291-1.182c2.328,0,3.436,1.774,3.436,3.917,0,1.958-1,3.843-3.178,3.843a2.9,2.9,0,0,1-2.476-1.145h-.037v3.658H231.4Zm3.621,1.072c-1.367,0-2.069,1.035-2.069,2.586,0,1.478.739,2.586,2.069,2.586,1.478,0,2.032-1.293,2.032-2.586S236.351,114.356,235.021,114.356Z" transform="translate(-196.853 -110.218)" fill="#FF8800"/>
      <path id="Pfad_427" data-name="Pfad 427" d="M254.8,113.222h1.515v1.4h.037A2.377,2.377,0,0,1,258.495,113c.369,0,.48.037.628.037v1.552a4.527,4.527,0,0,0-.7-.074c-1.108,0-2,.887-2,2.512v3.51H254.8v-7.316Z" transform="translate(-211.607 -110.155)" fill="#FF8800"/>
      <path id="Pfad_428" data-name="Pfad 428" d="M268.4,106h1.626v1.552H268.4Zm0,2.808h1.626v7.353H268.4Z" transform="translate(-220.182 -105.741)" fill="#FF8800"/>
      <path id="Pfad_429" data-name="Pfad 429" d="M278.189,118.273c.074.924.813,1.293,1.663,1.293.628,0,1.663-.111,1.626-.961s-1.219-.961-2.4-1.219-2.365-.665-2.365-2.18c0-1.589,1.737-2.106,3.067-2.106,1.515,0,2.882.628,3.067,2.254h-1.663c-.148-.776-.776-1-1.478-1-.48,0-1.33.111-1.33.739,0,.813,1.182.924,2.4,1.182,1.182.259,2.365.7,2.365,2.143,0,1.737-1.774,2.4-3.288,2.4-1.847,0-3.215-.813-3.251-2.549Z" transform="translate(-225.352 -110.218)" fill="#FF8800"/>
      <path id="Pfad_430" data-name="Pfad 430" d="M298.226,117.386a1.96,1.96,0,0,0,1.958,2.18,1.67,1.67,0,0,0,1.774-1.219h1.552a3.267,3.267,0,0,1-3.325,2.512c-2.291,0-3.584-1.589-3.584-3.88a3.555,3.555,0,1,1,7.02.406h-5.394Zm3.769-1.072a1.886,1.886,0,1,0-3.769,0Z" transform="translate(-237.963 -110.218)" fill="#FF8800"/>
      <path id="Pfad_431" data-name="Pfad 431" d="M319.61,112.357c0,1.552,1.145,2.18,2.586,2.18,1.552,0,2.143-.776,2.143-1.552a1.224,1.224,0,0,0-.85-1.256c-.7-.259-1.626-.443-3.03-.85-1.737-.48-2.254-1.515-2.254-2.586,0-2.032,1.884-2.993,3.695-2.993,2.106,0,3.88,1.108,3.88,3.251h-1.774c-.074-1.293-.961-1.774-2.18-1.774-.813,0-1.847.3-1.847,1.33,0,.7.48,1.108,1.219,1.293.148.037,2.4.628,2.919.776a2.7,2.7,0,0,1,1.958,2.586c0,2.291-2.032,3.178-4.027,3.178-2.328,0-4.175-1.108-4.249-3.621h1.81Z" transform="translate(-251.33 -105.3)" fill="#FF8800"/>
      <path id="Pfad_432" data-name="Pfad 432" d="M343.8,106h1.626v3.769h.037a2.586,2.586,0,0,1,2.217-1.182,2.316,2.316,0,0,1,2.586,2.512v5.062H348.64v-4.619c-.037-1.145-.48-1.663-1.441-1.663a1.789,1.789,0,0,0-1.774,1.921v4.323H343.8Z" transform="translate(-267.723 -105.741)" fill="#FF8800"/>
      <path id="Pfad_433" data-name="Pfad 433" d="M365,116.88a3.7,3.7,0,1,1,3.695,3.88C366.33,120.759,365,119.17,365,116.88Zm5.8,0c0-1.256-.628-2.586-2.106-2.586-1.441,0-2.106,1.33-2.106,2.586,0,1.293.628,2.586,2.106,2.586C370.136,119.5,370.8,118.173,370.8,116.88Z" transform="translate(-281.09 -110.155)" fill="#FF8800"/>
      <path id="Pfad_434" data-name="Pfad 434" d="M388.8,113.285h1.552v1h.037a2.417,2.417,0,0,1,2.291-1.182c2.328,0,3.436,1.774,3.436,3.917,0,1.958-1,3.843-3.178,3.843a2.9,2.9,0,0,1-2.476-1.145h-.037v3.658H388.8Zm3.621,1.072c-1.367,0-2.069,1.035-2.069,2.586,0,1.478.739,2.586,2.069,2.586,1.478,0,2.032-1.293,2.032-2.586S393.751,114.356,392.421,114.356Z" transform="translate(-296.096 -110.218)" fill="#FF8800"/>
    </g>
  </g>
</svg>