<?xml version="1.0" encoding="utf-8"?>
<svg version="1.1" id="Ebene_1" xmlns="http://www.w3.org/2000/svg" xmlns:xlink="http://www.w3.org/1999/xlink" x="0px" y="0px"
	 viewBox="0 0 47 32" style="enable-background:new 0 0 47 32;" xml:space="preserve">
<style type="text/css">
	.st0{fill:#666666;}
	.st1{fill:#009B75;}
	.st2{fill:#FFFFFF;}
</style>
<g>
	<path class="st0" d="M19.5,19v7.3c0,1.6-1.3,2.9-2.9,2.9H5.8c-1.6,0-2.9-1.3-2.9-2.9V5.7c0-1.6,1.3-2.9,2.9-2.9h10.8
		c1.6,0,2.9,1.3,2.9,2.9v6.8h1.9V5.4C21.4,3,19.4,1,17,1H5.4C3,1,1,3,1,5.4v21.2C1,29,3,31,5.4,31H17c2.5,0,4.4-2,4.4-4.4V19H19.5z"
		/>
	<path class="st1" d="M41.6,1H30c-2.5,0-4.4,2-4.4,4.4v1c0.7,0,1.3,0.3,1.7,0.8l0.2,0.2V5.7c0-1.6,1.3-2.9,2.9-2.9h10.8
		c1.6,0,2.9,1.3,2.9,2.9v20.5c0,1.6-1.3,2.9-2.9,2.9H30.4c-1.6,0-2.9-1.3-2.9-2.9v-2.1l-0.2,0.2c-0.5,0.5-1.1,0.7-1.7,0.8v1.5
		c0,2.4,2,4.4,4.4,4.4h11.5c2.5,0,4.4-2,4.4-4.4V5.4C46,3,44,1,41.6,1z"/>
	<g>
		<path class="st1" d="M25.6,24.6c-0.5,0-0.9-0.2-1.3-0.5l-0.8-0.8c-0.3-0.3-0.5-0.8-0.5-1.3c0-0.5,0.2-0.9,0.5-1.3l2.5-2.4H15.5
			c-1,0-1.8-0.8-1.8-1.8v-1.1c0-1,0.8-1.8,1.8-1.8h10.7l-2.5-2.4c-0.4-0.3-0.5-0.8-0.6-1.3c0-0.5,0.2-0.9,0.5-1.3l0.8-0.8
			c0.3-0.3,0.8-0.5,1.3-0.5c0.5,0,0.9,0.2,1.3,0.5l6.8,6.8c0.3,0.3,0.5,0.8,0.5,1.3c0,0.5-0.2,0.9-0.5,1.3l-6.8,6.8
			C26.5,24.4,26.1,24.6,25.6,24.6z"/>
		<path class="st2" d="M25.6,8.4c0.2,0,0.4,0.1,0.6,0.2l6.8,6.8c0.3,0.3,0.3,0.9,0,1.2l-6.8,6.8c-0.2,0.2-0.4,0.2-0.6,0.2
			c-0.2,0-0.4-0.1-0.6-0.2l-0.8-0.8c-0.3-0.3-0.3-0.9,0-1.2l4.2-4h-13c-0.5,0-0.8-0.4-0.8-0.8v-1.1c0-0.5,0.4-0.8,0.8-0.8h13l-4.2-4
			c-0.3-0.3-0.4-0.9,0-1.2L25,8.6C25.2,8.4,25.4,8.4,25.6,8.4 M25.6,6.5c-0.7,0-1.4,0.3-1.9,0.8L22.9,8c-0.5,0.5-0.8,1.2-0.8,2
			c0,0.7,0.3,1.4,0.8,1.9l0.8,0.8h-8.3c-1.5,0-2.7,1.2-2.7,2.7v1.1c0,1.5,1.2,2.7,2.7,2.7h8.3L23,20.1c-0.5,0.5-0.8,1.2-0.8,1.9
			c0,0.7,0.3,1.4,0.8,2l0.8,0.8c0.5,0.5,1.2,0.8,1.9,0.8c0.7,0,1.4-0.3,1.9-0.8l6.8-6.8c0.5-0.5,0.8-1.2,0.8-1.9
			c0-0.7-0.3-1.4-0.8-1.9l-6.8-6.8C27,6.8,26.3,6.5,25.6,6.5L25.6,6.5z"/>
	</g>
</g>
</svg>
