<?xml version="1.0" encoding="utf-8"?>
<!-- Generator: Adobe Illustrator 22.0.1, SVG Export Plug-In . SVG Version: 6.00 Build 0)  -->
<svg version="1.1" id="Layer_1" xmlns="http://www.w3.org/2000/svg" xmlns:xlink="http://www.w3.org/1999/xlink" x="0px" y="0px"
	 width="32px" height="32px" viewBox="0 0 32 32" style="enable-background:new 0 0 32 32;" xml:space="preserve">
<g id="surface1">
	<path d="M4,7C3.4,7,3,7.4,3,8s0.4,1,1,1h2.2l2.6,10.5c0.2,0.9,1,1.5,1.9,1.5h12.5c0.9,0,1.7-0.6,1.9-1.5l2.6-9.5h-2.1l-2.4,9H10.8
		L8.2,8.5C7.9,7.6,7.1,7,6.2,7H4z M22,21c-1.6,0-3,1.4-3,3s1.4,3,3,3s3-1.4,3-3S23.6,21,22,21z M13,21c-1.6,0-3,1.4-3,3s1.4,3,3,3
		s3-1.4,3-3S14.6,21,13,21z M16,10h-3v2h3h2h3v-2h-3H16z M13,23c0.6,0,1,0.4,1,1s-0.4,1-1,1s-1-0.4-1-1S12.4,23,13,23z M22,23
		c0.6,0,1,0.4,1,1s-0.4,1-1,1s-1-0.4-1-1S21.4,23,22,23z"/>
</g>
</svg>
