<svg xmlns="http://www.w3.org/2000/svg" viewBox="0 0 32 25">
	<path class="color1" d="M29.33,0H2.67A2.66,2.66,0,0,0,0,2.67V22.22a2.67,2.67,0,0,0,2.67,2.67H29.33A2.67,2.67,0,0,0,32,22.22V2.67A2.66,2.66,0,0,0,29.33,0Zm.89,22.22a.89.89,0,0,1-.89.89H2.67a.89.89,0,0,1-.89-.89V2.67a.89.89,0,0,1,.89-.89H29.33a.89.89,0,0,1,.89.89Z" transform="translate(0 0)"/>
	<rect class="color2" x="5.32" y="17.89" width="5.33" height="1.78" rx="0.67"/>
	<rect class="color2" x="12.43" y="17.89" width="8.89" height="1.78" rx="0.67"/>
	<rect class="color2" x="1.76" y="5.44" width="28.44" height="5.33"/>
</svg>