<svg version="1.1" id="Ebene_1" xmlns="http://www.w3.org/2000/svg" xmlns:xlink="http://www.w3.org/1999/xlink" x="0px" y="0px"
	 viewBox="0 0 32 32" style="enable-background:new 0 0 32 32;" xml:space="preserve">
<path d="M10,15.3h3v3h-3V15.3z M22.7,4.3H9c-1.4,0-2.6,1.2-2.6,2.6v18c0,1.4,1.2,2.6,2.6,2.6h13.7c1.4,0,2.6-1.2,2.6-2.6v-18
	C25.3,5.5,24.1,4.3,22.7,4.3z M9,5.5h13.7c0.8,0,1.4,0.6,1.4,1.4v3.7H7.6V6.9C7.6,6.2,8.2,5.5,9,5.5z M22.7,26.3H9
	c-0.8,0-1.4-0.6-1.4-1.4v-13H24v13C24,25.7,23.4,26.3,22.7,26.3z M10,20h3v3h-3V20z M14.5,15.3h3v3h-3V15.3z M14.5,20h3v3h-3V20z
	 M19,15.3h3V23h-3V15.3z"/>
</svg>