<svg xmlns="http://www.w3.org/2000/svg" viewBox="0 0 576 448">
	<path class="color1" d="M576,163.94a6.81,6.81,0,0,0-6.83-6.73,6.49,6.49,0,0,0-4.08,1.44c-25.2,19.58-58.5,44.55-173.25,127.91-22.74,16.58-63.31,53.55-103.3,53.55h-.91c-39.81,0-79.69-36.28-103.36-53.55C69.52,203.2,36.11,178.34,10.91,158.76A6.73,6.73,0,0,0,0,164.05V394a54,54,0,0,0,54,54H522a54,54,0,0,0,54-54Z" transform="translate(0)"/>
	<path class="color2" d="M477.65,0H98.35A28.44,28.44,0,0,0,70,28.35V183.16C95.51,202,131.18,228,184.27,266.56c23.67,17.27,63.55,53.55,103.36,53.55h.91c40,0,80.56-37,103.3-53.55C444.89,228,480.52,202,506,183.16V28.35A28.44,28.44,0,0,0,477.65,0ZM482,158.55a8.52,8.52,0,0,1-8.5,8.5h-371a8.52,8.52,0,0,1-8.5-8.5v-3a8.53,8.53,0,0,1,8.5-8.51h371a8.53,8.53,0,0,1,8.5,8.51Zm0-57.43a8.52,8.52,0,0,1-8.5,8.5h-371a8.52,8.52,0,0,1-8.5-8.5v-3a8.53,8.53,0,0,1,8.5-8.51h371a8.53,8.53,0,0,1,8.5,8.51Zm0-57.43a8.53,8.53,0,0,1-8.5,8.5h-371a8.53,8.53,0,0,1-8.5-8.5v-3a8.53,8.53,0,0,1,8.5-8.5h371a8.53,8.53,0,0,1,8.5,8.5Z" transform="translate(0)"/>
</svg>