<svg id="Gruppe_6" data-name="Gruppe 6" xmlns="http://www.w3.org/2000/svg" width="22" height="22" viewBox="0 0 22 22">
  <g id="Gruppe_5" data-name="Gruppe 5">
    <path id="Pfad_33" data-name="Pfad 33" d="M22.556,3H5.444A2.452,2.452,0,0,0,3,5.444V22.556A2.452,2.452,0,0,0,5.444,25H22.556A2.452,2.452,0,0,0,25,22.556V5.444A2.452,2.452,0,0,0,22.556,3Zm0,19.556H5.444V5.444H22.556Z" transform="translate(-3 -3)" fill="#fff"/>
    <rect id="Rechteck_52" data-name="Rechteck 52" width="5" height="1.5" transform="translate(4.25 5.864)" fill="#fff"/>
    <rect id="Rechteck_53" data-name="Rechteck 53" width="5" height="1.5" transform="translate(13.077 15.841)" fill="#fff"/>
    <rect id="Rechteck_54" data-name="Rechteck 54" width="5" height="1.5" transform="translate(13.077 12.735)" fill="#fff"/>
    <path id="Pfad_34" data-name="Pfad 34" d="M8,18H9.5V16h2V14.5h-2v-2H8v2H6V16H8Z" transform="translate(-2.04 0.04)" fill="#fff"/>
    <path id="Pfad_35" data-name="Pfad 35" d="M14.09,10.95,15.5,9.54l1.41,1.41,1.06-1.06L16.56,8.47l1.41-1.41L16.91,6,15.5,7.41,14.09,6,13.03,7.06l1.41,1.41L13.03,9.89Z" transform="translate(0.072 -2.08)" fill="#fff"/>
  </g>
</svg>
