<svg xmlns="http://www.w3.org/2000/svg" width="33.443" height="26" viewBox="0 0 33.443 26">
  <g id="Gruppe_39" data-name="Gruppe 39" transform="translate(-147 -100)">
    <g id="Gruppe_32" data-name="Gruppe 32" transform="translate(-495.019 -283.969)">
      <path id="Pfad_41" data-name="Pfad 41" d="M669.894,400.018H654.826c-2.511-5.264-4.774-10.785-7.154-16.049h-5.653v2h4.273c2.261,5.4,4.642,10.665,7.034,15.929h16.568a9.134,9.134,0,0,0,0-1.881Zm-3.642,3.882a2.969,2.969,0,0,0-2.26,2.391,3.018,3.018,0,0,0,2.26,3.631,3.057,3.057,0,0,0,3.642-3.631,3.089,3.089,0,0,0-3.642-2.391Zm-9.916,0a3.309,3.309,0,0,0-2.391,2.391,3.193,3.193,0,0,0,2.391,3.631,3.148,3.148,0,0,0,3.643-3.631,3.09,3.09,0,0,0-3.643-2.391Zm-.379-6.014h14.066l3.893-9.905H652.064l.63,2.012h3.763l.76,2h-3.642l.75,1.881H658.1l.749,2.131h-3.642Z" fill-rule="evenodd"/>
    </g>
    <g id="Gruppe_33" data-name="Gruppe 33">
      <g id="Pfad_48" data-name="Pfad 48" transform="translate(168.443 100)">
        <path d="M 6 11.5 C 2.967289924621582 11.5 0.5 9.032710075378418 0.5 6 C 0.5 2.967289924621582 2.967289924621582 0.5 6 0.5 C 9.032710075378418 0.5 11.5 2.967289924621582 11.5 6 C 11.5 9.032710075378418 9.032710075378418 11.5 6 11.5 Z" stroke="none"/>
        <path d="M 6 1 C 3.242989540100098 1 1 3.242989540100098 1 6 C 1 8.757009506225586 3.242989540100098 11 6 11 C 8.757009506225586 11 11 8.757009506225586 11 6 C 11 3.242989540100098 8.757009506225586 1 6 1 M 6 0 C 9.31371021270752 0 12 2.68628978729248 12 6 C 12 9.31371021270752 9.31371021270752 12 6 12 C 2.68628978729248 12 0 9.31371021270752 0 6 C 0 2.68628978729248 2.68628978729248 0 6 0 Z" stroke="none" fill="#fff"/>
      </g>
      <rect id="Rechteck_74" data-name="Rechteck 74" width="2" height="6" transform="translate(173.443 103)" fill="#fff"/>
      <rect id="Rechteck_75" data-name="Rechteck 75" width="2" height="6" transform="translate(177.443 105) rotate(90)" fill="#fff"/>
    </g>
  </g>
</svg>
